<svg width="449" height="191" viewBox="0 0 449 191" fill="none" xmlns="http://www.w3.org/2000/svg">
<path d="M225.398 18.596L220.58 26.1415L240.671 39.9596L246.489 30.8687L225.398 18.596Z" fill="#D4CAFE"/>
<path d="M245.307 13.1415L221.762 19.4142L223.762 28.1415L247.671 23.6869L245.307 13.1415Z" fill="#D4CAFE"/>
<path d="M232.034 1.41417L219.761 22.5051L227.307 27.3233L241.125 7.23235L232.034 1.41417Z" fill="#D4CAFE"/>
<path d="M224.852 0.141418L214.307 2.50505L220.579 26.1414L229.307 24.1414L224.852 0.141418Z" fill="#D4CAFE"/>
<path d="M208.307 6.68682L202.58 15.8686L223.67 28.1414L228.398 20.5959L208.307 6.68682Z" fill="#D4CAFE"/>
<path d="M225.307 18.596L201.307 23.0505L203.671 33.596L227.307 27.3233L225.307 18.596Z" fill="#6550B9"/>
<path d="M221.671 19.4141L207.853 39.505L217.034 45.3232L229.307 24.2323L221.671 19.4141Z" fill="#6550B9"/>
<path d="M228.489 20.596L219.761 22.596L224.216 46.505L234.67 44.2323L228.489 20.596Z" fill="#6550B9"/>
<path d="M227.852 18.1415L218.943 19.7778L221.034 28.8687L230.125 26.8687L227.852 18.1415Z" fill="#6550B9"/>
<path d="M330.785 12.8233H358.74L342.896 112.823H314.941L330.785 12.8233Z" fill="#6550B9"/>
<path d="M357.655 103.434L369.028 82.1983C378.49 88.9138 388.68 92.3623 399.779 92.3623C410.879 92.3623 413.063 89.4583 413.063 85.2838C413.063 81.1093 407.604 78.5683 401.69 77.0256L395.139 75.3013C382.22 72.0343 366.48 65.2281 366.48 45.2631C366.48 25.2981 382.584 10.9597 409.878 10.9597C437.173 10.9597 438.173 14.6804 448.454 22.6664L435.899 43.6296C427.984 36.7326 418.703 33.1026 408.514 33.1026C398.324 33.1026 395.503 35.8251 395.503 40.6349C395.503 45.4446 400.234 47.2596 406.603 48.9838L412.608 50.6173C428.802 54.8826 442.359 60.3276 442.359 78.8406C442.359 97.3535 425.072 114.596 396.959 114.596C368.846 114.596 368.664 110.966 357.655 103.434Z" fill="#6550B9"/>
<path d="M82.4796 36.5291C78.1088 28.8996 71.9169 23.0867 63.9949 18.9995C55.9818 14.9123 46.6939 12.8233 36.2223 12.8233H1.16504V112.823H36.2223C46.785 112.823 55.9818 110.734 63.9949 106.647C72.008 102.56 78.1999 96.747 82.4796 89.2084C86.8504 81.6698 89.0358 72.9505 89.0358 62.9596C89.0358 52.9687 86.8504 44.1585 82.4796 36.5291ZM28.5734 36.9832H35.4938C44.0532 36.9832 50.3362 39.163 54.707 43.6135C59.0778 48.1549 61.2632 54.4219 61.2632 62.9596C61.2632 71.4973 59.1688 77.6735 54.7981 82.0331C50.4273 86.3928 44.1443 88.4818 35.4938 88.4818H28.5734V36.9832Z" fill="#6550B9"/>
<path d="M215.852 59.2324L195.528 46.4142C193.067 50.5051 190.15 54.2324 186.778 57.4142L169.188 12.6869H128.266L88.9844 112.687H117.876L148.681 34.1415L161.441 66.596C156.155 66.4142 150.687 65.3233 145.583 63.7779L138.747 84.5051C148.681 87.8688 159.527 89.7779 170.191 88.7779L179.578 112.687H208.47L195.619 80.0506C203.821 74.6869 210.748 67.2324 215.852 59.2324Z" fill="#6550B9"/>
<path d="M291.59 12.6869L260.784 91.2324L246.293 54.2324C238.911 59.2324 230.435 62.6869 221.412 64.4142L240.369 112.687H281.291L320.481 12.6869H291.59Z" fill="#6550B9"/>
<path d="M0.4375 161.023C0.4375 156.18 4.53906 154.93 8.36719 154.656C9.77344 154.559 12.957 154.383 13.9531 154.344L13.9141 152.664C13.9141 150.281 12.4688 148.875 9.61719 148.875C7.15625 148.875 5.67188 150.008 5.24219 151.57H1.10156C1.49219 148.055 4.77344 145.516 9.77344 145.516C13.1328 145.516 18.0938 146.766 18.0938 152.898V167H14.0312V164.109H13.875C13.0547 165.711 11.1016 167.469 7.58594 167.469C3.5625 167.469 0.4375 165.164 0.4375 161.023ZM4.5 161.062C4.5 163.094 6.17969 164.148 8.52344 164.148C11.9219 164.148 13.9531 161.883 13.9531 159.344V157.391L8.95312 157.742C6.21875 157.938 4.5 158.953 4.5 161.062ZM20.2812 142.43V138.719H42.1953V142.43H33.4062V167H29.1094V142.43H20.2812ZM48.3672 167L42.1562 145.789H46.4531L50.5938 161.336H50.8281L54.9688 145.789H59.2656L63.3672 161.258H63.6016L67.7031 145.789H72L65.7891 167H61.5312L57.2344 151.727H56.9219L52.6641 167H48.3672ZM83.7578 167.43C77.7422 167.43 73.8359 163.055 73.8359 156.492C73.8359 149.891 77.7422 145.516 83.7578 145.516C89.7344 145.516 93.6406 149.891 93.6406 156.492C93.6406 163.055 89.7344 167.43 83.7578 167.43ZM83.7578 163.953C87.5859 163.953 89.4219 160.555 89.4219 156.492C89.4219 152.43 87.5859 148.953 83.7578 148.953C79.8516 148.953 78.0156 152.43 78.0156 156.492C78.0156 160.555 79.8516 163.953 83.7578 163.953ZM97.7422 167V145.789H101.766V149.148H102C102.781 146.883 104.891 145.477 107.391 145.477C107.898 145.477 108.719 145.516 109.148 145.555V149.539C108.797 149.461 107.82 149.305 106.961 149.305C104.07 149.305 101.922 151.297 101.922 154.07V167H97.7422ZM112.273 167V138.719H116.453V154.734H116.805L125.203 145.789H130.203L121.648 154.891L130.789 167H125.672L118.484 157.469L116.453 159.461V167H112.273ZM145.398 151.57C145.008 149.891 143.68 148.797 141.375 148.797C138.992 148.797 137.273 150.047 137.312 151.648C137.273 152.898 138.289 153.797 140.633 154.344L143.992 155.125C147.898 155.984 149.773 157.859 149.812 160.867C149.773 164.695 146.57 167.43 141.141 167.43C136.062 167.43 133.016 165.164 132.508 161.219H136.766C137.117 163.133 138.602 164.07 141.102 164.07C143.797 164.07 145.516 162.977 145.555 161.18C145.516 159.812 144.5 158.914 142.273 158.406L138.953 157.703C135.125 156.844 133.133 154.812 133.133 151.883C133.133 148.094 136.414 145.516 141.336 145.516C146.062 145.516 148.992 147.938 149.422 151.57H145.398Z" fill="#6550B9"/>
</svg>
